PathFileType	3	(X/Y/Z)	E:\ViconData\BIOM9541 2025\Week 7\Mon0900\MingceV2 Cal 01.trc
DataRate	CameraRate	NumFrames	NumMarkers	Units	OrigDataRate	OrigDataStartFrame	OrigNumFrames
200.0	200.0	15	19	mm	200.0	239	273	
Frame#	Time	C7			CLAV			RBAK			LASI			RASI			LPSI			RPSI			LTHI			LKNE			LTIB			LANK			LHEE			LTOE			RTHI			RKNE			RTIB			RANK			RHEE			RTOE			
		X1	Y1	Z1	X2	Y2	Z2	X3	Y3	Z3	X4	Y4	Z4	X5	Y5	Z5	X6	Y6	Z6	X7	Y7	Z7	X8	Y8	Z8	X9	Y9	Z9	X10	Y10	Z10	X11	Y11	Z11	X12	Y12	Z12	X13	Y13	Z13	X14	Y14	Z14	X15	Y15	Z15	X16	Y16	Z16	X17	Y17	Z17	X18	Y18	Z18	X19	Y19	Z19	
239	1.19	238.95409	1435.5106	-1046.8511	244.15169	1381.9036	-907.7594	82.446121	1411.2579	-984.68805	338.65463	944.27148	-812.07996	110.86252	969.92743	-828.70062	269.75909	979.32977	-1026.411	200.59042	983.6283	-1025.0745	409.44009	669.29547	-877.57001	368.18066	470.64313	-916.76764	377.96579	261.80817	-994.1123	332.2457	78.885674	-957.9668	277.47183	44.980831	-1004.8566	323.30515	43.5005	-819.6709	48.431511	705.27423	-886.46637	95.025002	474.06073	-941.13208	78.248131	367.10565	-1011.4061	125.2539	78.380287	-986.97327	187.53656	49.352661	-1017.5178	98.49942	43.034634	-849.72308
240	1.195	238.73987	1435.0144	-1047.0343	244.15207	1381.9446	-907.81702	82.462875	1411.2887	-984.69556	338.7117	944.33405	-812.12286	110.88056	969.97516	-828.77734	269.8374	979.34003	-1026.4539	200.66913	983.63593	-1025.1069	409.48264	669.27905	-877.65765	368.21725	470.74112	-916.8241	378.00565	261.84338	-994.15717	332.27631	78.950485	-957.99939	277.50372	44.942776	-1004.8582	323.31656	43.538177	-819.69031	48.475258	705.27081	-886.47491	95.038986	474.06464	-941.14899	78.354286	367.13037	-1010.8844	125.28435	78.363693	-986.99652	187.52791	49.337299	-1017.5193	98.50602	43.055134	-849.79315
241	1.2	238.79431	1435.0951	-1047.0222	244.1405	1382.0184	-907.87531	82.495987	1411.3336	-984.69928	338.76419	944.37292	-812.19208	110.89179	970.03448	-828.85553	269.9003	979.34521	-1026.5114	200.7328	983.61273	-1025.1313	409.46902	669.34656	-877.73767	368.30991	470.93597	-916.8205	378.06619	261.94217	-994.15881	332.30606	78.992493	-958.07904	277.53229	44.89299	-1004.8721	323.30658	43.553337	-819.75739	48.686142	705.05756	-886.59869	95.032104	474.10153	-941.15912	78.31662	367.06293	-1011.4247	125.25436	78.394638	-987.01147	187.52618	49.351246	-1017.5527	98.534958	43.092777	-849.86914
242	1.205	238.80795	1435.163	-1047.036	244.16713	1382.0359	-907.883	82.507622	1411.3419	-984.71484	338.79681	944.38635	-812.22632	110.95197	970.07031	-828.90216	269.96182	979.36603	-1026.5569	200.79443	983.61951	-1025.1804	409.49258	669.35693	-877.7865	368.34921	470.98325	-916.82898	378.08109	261.95398	-994.1687	332.31406	79.023651	-958.0755	277.5116	44.951447	-1004.9612	323.33011	43.529625	-819.80878	48.737129	705.08282	-886.61597	95.045982	474.13049	-941.17273	78.400398	367.14221	-1010.9408	125.2417	78.37236	-987.06647	187.51923	49.36174	-1017.5779	98.54512	43.112434	-849.89722
243	1.21	238.80118	1435.1781	-1047.0454	244.19406	1382.0062	-907.8985	82.512566	1411.3295	-984.71216	338.82932	944.362	-812.22864	111.0007	970.04553	-828.91351	270.00519	979.42242	-1026.6163	200.81012	983.67267	-1025.2251	409.56256	669.31567	-877.78918	368.34418	470.87604	-916.83301	378.07419	261.89517	-994.20435	332.30438	78.989944	-958.03748	277.48615	44.999928	-1004.9821	323.31445	43.514217	-819.76587	48.779007	705.09607	-886.62958	95.064125	474.18832	-941.17792	78.398735	367.17532	-1010.9322	125.24301	78.423561	-987.04633	187.52448	49.392288	-1017.5985	98.550911	43.101395	-849.867
244	1.215	238.77533	1435.1078	-1047.0657	244.20236	1381.9489	-907.86694	82.508835	1411.2856	-984.71515	338.86523	944.32489	-812.21094	111.05992	970.01312	-828.91229	270.05234	979.41736	-1026.6283	200.84323	983.68872	-1025.2456	409.60138	669.24158	-877.7522	368.30603	470.64438	-916.87488	378.07086	261.79211	-994.21246	332.27979	78.888451	-958.00787	277.47845	45.069111	-1005.0132	323.30325	43.472134	-819.75958	48.817986	705.10028	-886.61639	95.120476	474.12918	-941.12866	78.404785	367.21674	-1010.9172	125.29011	78.410767	-987.0282	187.60797	49.421303	-1017.6771	98.541977	43.074692	-849.7851
245	1.22	238.79138	1435.0166	-1047.0708	244.19737	1381.9501	-907.85474	82.520653	1411.2518	-984.70831	338.90506	944.3233	-812.21783	111.08676	970.01257	-828.91205	270.09317	979.39795	-1026.6343	200.9077	983.6651	-1025.256	409.65137	669.25769	-877.7428	368.33148	470.61612	-916.87952	378.09882	261.77759	-994.21399	332.29376	78.860863	-958.02069	277.48386	45.051231	-1004.9915	323.3139	43.490456	-819.72266	48.858006	705.08752	-886.59473	95.190521	474.10031	-941.08234	78.41156	367.20615	-1010.8716	125.30219	78.418678	-987.04498	187.62494	49.374958	-1017.6373	98.550362	43.034962	-849.77295
246	1.225	238.79373	1435.0123	-1047.054	244.2019	1381.9912	-907.86511	82.542374	1411.2478	-984.69391	338.94498	944.33142	-812.25513	111.11937	970.05328	-828.93518	270.13376	979.3819	-1026.6451	200.96194	983.63977	-1025.2667	409.65558	669.31647	-877.81842	368.35309	470.63699	-916.95868	378.09262	261.77789	-994.28094	332.29538	78.905556	-958.06989	277.50989	44.994019	-1004.9495	323.3024	43.570343	-819.63226	48.892601	705.08569	-886.56287	95.207359	474.0827	-941.04797	78.434746	367.20474	-1010.8806	125.30005	78.400215	-987.03729	187.59319	49.341808	-1017.5737	98.547371	43.064671	-849.78058
247	1.23	239.06764	1435.6112	-1046.8011	244.20605	1382.045	-907.88306	82.561966	1411.2838	-984.67871	338.98441	944.37073	-812.28552	111.17061	970.1015	-828.96698	270.17224	979.39319	-1026.6503	200.9962	983.63013	-1025.2712	409.66687	669.36896	-877.89001	368.41162	470.78976	-916.97961	378.12698	261.83813	-994.28717	332.62445	79.400673	-957.758	277.4884	44.986141	-1004.983	323.30161	43.610706	-819.66425	48.899559	705.08569	-886.55341	95.222427	474.0816	-941.02533	78.448471	367.16464	-1010.8303	125.30711	78.386208	-987.021	187.53287	49.314896	-1017.4944	98.537971	43.06992	-849.81946
248	1.235	238.85742	1435.1427	-1046.9967	244.23134	1382.0448	-907.94202	82.581398	1411.2749	-984.68652	339.0415	944.37195	-812.30707	111.23362	970.10675	-828.99854	270.1861	979.43109	-1026.6539	201.02188	983.67542	-1025.3035	409.70706	669.35492	-877.93146	368.85764	471.31482	-916.69604	378.11685	261.85095	-994.29193	332.31039	78.985939	-958.04291	277.46909	44.962219	-1004.9396	323.31885	43.576084	-819.70721	48.899731	705.10663	-886.57892	95.162315	474.12939	-941.0094	78.468765	367.16742	-1010.8597	125.2923	78.398537	-986.99402	187.51381	49.32478	-1017.4896	98.518517	43.094467	-849.7912
249	1.24	238.85886	1435.2227	-1047.0121	244.26859	1381.9978	-907.94611	82.588852	1411.2532	-984.70056	339.09164	944.32483	-812.34271	111.308	970.0686	-829.01422	270.20102	979.50269	-1026.6825	201.05179	983.73981	-1025.337	409.7673	669.27362	-877.93219	368.9115	471.26071	-916.69128	378.16055	261.8584	-994.23004	332.34229	78.992828	-957.99078	277.44522	44.982044	-1004.8887	323.32663	43.492252	-819.75305	48.940056	705.10669	-886.58606	95.167648	474.1813	-941.03259	78.461998	367.18619	-1010.7982	125.27811	78.457901	-986.99634	187.52391	49.383572	-1017.5242	98.507904	43.083263	-849.74902
250	1.245	238.88258	1435.2408	-1047.017	244.29297	1381.98	-907.96619	82.60791	1411.2363	-984.69678	339.13202	944.28308	-812.35211	111.34232	970.02881	-828.99292	270.24249	979.54797	-1026.7046	201.09821	983.776	-1025.3718	409.83807	669.21436	-877.93646	368.48282	470.68506	-916.98901	378.18109	261.82053	-994.20154	332.34283	78.955093	-957.94696	277.45395	45.026634	-1004.9141	323.3237	43.405655	-819.80249	48.988956	705.12012	-886.62891	95.207558	474.19623	-941.05878	78.499496	367.20663	-1010.8088	125.27447	78.491982	-986.97534	187.55309	49.440594	-1017.5755	98.525597	43.082973	-849.73279
251	1.25	238.93105	1435.2145	-1047.0426	244.27826	1381.9674	-908.00317	82.642273	1411.2169	-984.73181	339.17221	944.28229	-812.38617	111.38295	970.03723	-829.02484	270.32275	979.51642	-1026.7166	201.16957	983.7738	-1025.4004	409.87369	669.25226	-877.97211	368.50156	470.6756	-917.03473	378.18826	261.7677	-994.25641	332.32257	78.858757	-958.0387	277.49033	45.024395	-1004.9627	323.34573	43.465862	-819.76001	49.026371	705.12561	-886.64893	95.256493	474.1806	-941.05957	78.462212	367.14932	-1011.3566	125.31257	78.471634	-986.99615	187.61571	49.412029	-1017.6194	98.572243	43.070778	-849.79895
252	1.255	238.95978	1435.1256	-1047.0697	244.27837	1382.0322	-908.01086	82.678215	1411.2075	-984.75659	339.21033	944.30011	-812.41864	111.43352	970.0802	-829.04816	270.38843	979.45197	-1026.7479	201.2467	983.69769	-1025.4292	409.90439	669.30353	-878.02563	368.95657	471.24951	-916.79004	378.23032	261.79922	-994.34393	332.33795	78.873421	-958.13843	277.52368	44.986027	-1005.006	323.34082	43.503716	-819.75903	49.054386	705.13635	-886.65851	95.339828	474.12393	-941.04803	78.507362	367.1272	-1011.3738	125.34714	78.420036	-987.01453	187.6317	49.365204	-1017.6426	98.588806	43.062126	-849.86084
253	1.26	238.9713	1435.0878	-1047.0568	244.29672	1382.0725	-908.03015	82.691689	1411.2023	-984.76617	339.25632	944.33057	-812.44446	111.45944	970.12933	-829.05981	270.42532	979.42987	-1026.7502	201.26904	983.67395	-1025.4403	409.94058	669.34668	-878.0813	368.57361	470.87402	-917.13348	378.22198	261.79752	-994.38623	332.33984	78.944374	-958.14764	277.56848	44.89016	-1004.9742	323.32639	43.57655	-819.74017	49.086773	705.13464	-886.64539	95.370438	474.09036	-941.01544	78.527519	367.11829	-1011.3823	125.36681	78.391792	-987.04102	187.59814	49.317005	-1017.5739	98.593681	43.062233	-849.87671
